<?xml version="1.0" encoding="UTF-8" standalone="no"?>
<svg
   enable-background="new 0 0 64 64"
   height="32"
   id="Layer_1"
   version="1.1"
   viewBox="0 0 32 32"
   width="32"
   xml:space="preserve"
   sodipodi:docname="track.svg"
   inkscape:version="1.2.1 (9c6d41e410, 2022-07-14, custom)"
   xmlns:inkscape="http://www.inkscape.org/namespaces/inkscape"
   xmlns:sodipodi="http://sodipodi.sourceforge.net/DTD/sodipodi-0.dtd"
   xmlns="http://www.w3.org/2000/svg"
   xmlns:svg="http://www.w3.org/2000/svg"><defs
     id="defs7" /><sodipodi:namedview
     id="namedview5"
     pagecolor="#ffffff"
     bordercolor="#666666"
     borderopacity="1.0"
     inkscape:showpageshadow="2"
     inkscape:pageopacity="0.0"
     inkscape:pagecheckerboard="0"
     inkscape:deskcolor="#d1d1d1"
     showgrid="false"
     inkscape:zoom="11.40625"
     inkscape:cx="32"
     inkscape:cy="32"
     inkscape:window-width="1920"
     inkscape:window-height="1022"
     inkscape:window-x="1366"
     inkscape:window-y="0"
     inkscape:window-maximized="1"
     inkscape:current-layer="Layer_1" /><path
     d="m 13.242971,10.802516 v 1.612863 1.685508 4.74395 c -0.422544,-0.258925 -0.917733,-0.41088 -1.449578,-0.41088 -1.536885,0 -2.783521,1.246303 -2.783521,2.782188 0,1.537552 1.246303,2.783855 2.783521,2.783855 1.536219,0 2.782189,-1.24597 2.782522,-2.783188 v 0 -7.499146 l 7.081268,-2.03574 v 4.761278 c -0.422543,-0.258924 -0.917732,-0.41088 -1.449577,-0.41088 -1.537552,0 -2.783521,1.24597 -2.783521,2.781855 0,1.537219 1.245969,2.783855 2.783521,2.783855 1.447578,0 2.637231,-1.10801 2.769192,-2.522598 h 0.01333 V 11.298705 10.10372 8 Z"
     id="path2"
     style="stroke-width:0.333236" /></svg>
