<?xml version="1.0" encoding="UTF-8" standalone="no"?>
<svg
   viewBox="0 0 32 32"
   version="1.1"
   id="svg4"
   sodipodi:docname="heart-fill.svg"
   inkscape:version="1.2.1 (9c6d41e410, 2022-07-14, custom)"
   width="32"
   height="32"
   xmlns:inkscape="http://www.inkscape.org/namespaces/inkscape"
   xmlns:sodipodi="http://sodipodi.sourceforge.net/DTD/sodipodi-0.dtd"
   xmlns="http://www.w3.org/2000/svg"
   xmlns:svg="http://www.w3.org/2000/svg">
  <defs
     id="defs8" />
  <sodipodi:namedview
     id="namedview6"
     pagecolor="#ffffff"
     bordercolor="#666666"
     borderopacity="1.0"
     inkscape:showpageshadow="2"
     inkscape:pageopacity="0.0"
     inkscape:pagecheckerboard="0"
     inkscape:deskcolor="#d1d1d1"
     showgrid="false"
     inkscape:zoom="8.0654364"
     inkscape:cx="63.35677"
     inkscape:cy="9.5469106"
     inkscape:window-width="1920"
     inkscape:window-height="1022"
     inkscape:window-x="1366"
     inkscape:window-y="0"
     inkscape:window-maximized="1"
     inkscape:current-layer="svg4" />
  <path
     d="M 16555.492,1139.405 C 15720.741,389.20432 14649.538,1.5647803 13567.586,33.808365 c -1343.124,0 -2698.788,551.723555 -3690.0988,1575.636435 L 9171.711,2335.642 8465.9347,1609.4448 C 7473.5489,585.53192 6119.3183,33.808365 4775.8356,33.808365 3693.8843,33.808365 2623.7555,389.56258 1757.1196,1139.405 -469.12073,3066.4966 -580.54023,6502.5879 1426.4438,8576.9251 l 6921.6227,7154.4929 c 228.9295,234.304 522.7043,352.53 820.0618,352.53 298.504,0 597.9394,-117.044 824.361,-351.24 L 16910.529,8578.2149 C 18923.604,6500.4383 18812.543,3064.7053 16555.492,1139.405 Z M 15677.75,7381.763 9171.711,14109.924 2663.5226,7381.763 C 1508.4858,6188.7503 1234.7736,3834.9687 2882.779,2439.538 4312.2446,1202.1009 6271.5797,1812.5794 7232.0802,2803.8905 L 9172.7857,4807.2919 11113.133,2803.8905 c 946.528,-976.9806 2911.237,-1608.2383 4349.301,-364.3525 1630.451,1413.3438 1393.998,3724.134 215.316,4942.225 z"
     id="path2"
     style="stroke-width:35.8262" />
  <g
     id="g2299"
     transform="matrix(0.06316158,0,0,0.06316158,-0.17387517,0.0822582)">
    <path
       style="fill:#000000;fill-opacity:1;stroke:#000000;stroke-width:5;stroke-dasharray:none;stroke-opacity:1"
       d="M 163.55497,328.70565 C 112.90308,276.32006 69.577299,230.95602 67.275451,227.89668 62.565262,221.63647 56.319924,209.53874 53.722664,201.64384 50.093029,190.61082 48.850445,182.54428 48.80683,169.73151 c -0.04466,-13.11867 0.82876,-18.87444 4.566329,-30.09186 7.324437,-21.98255 23.91549,-41.122248 44.467937,-51.298919 10.547024,-5.222425 19.037184,-7.350269 31.284494,-7.840675 15.46823,-0.619378 31.63113,2.993774 46.23212,10.335004 14.08962,7.084124 18.8557,11.23888 51.50347,44.89731 l 29.17589,30.0791 29.26366,-30.19441 c 29.74215,-30.68812 35.35106,-35.79015 46.11864,-41.950886 21.43364,-12.263393 46.94095,-16.370129 68.01077,-10.94989 8.46459,2.177528 20.49587,7.967918 27.34682,13.161424 17.98463,13.633622 30.2264,33.138942 35.14985,56.005742 1.77676,8.25207 1.80283,27.29145 0.0493,35.9953 -2.94676,14.62654 -9.61716,29.95109 -17.59259,40.41714 -3.83834,5.037 -186.76363,195.02095 -188.23053,195.4939 -0.27702,0.0893 -41.94612,-42.69855 -92.59801,-95.08414 z"
       id="path880" />
  </g>
</svg>
