<?xml version="1.0" encoding="UTF-8" standalone="no"?>
<svg
   fill="none"
   height="32"
   viewBox="0 0 32 32"
   width="32"
   version="1.1"
   id="svg6"
   sodipodi:docname="muted.svg"
   inkscape:version="1.2.1 (9c6d41e410, 2022-07-14, custom)"
   xmlns:inkscape="http://www.inkscape.org/namespaces/inkscape"
   xmlns:sodipodi="http://sodipodi.sourceforge.net/DTD/sodipodi-0.dtd"
   xmlns="http://www.w3.org/2000/svg"
   xmlns:svg="http://www.w3.org/2000/svg">
  <defs
     id="defs10" />
  <sodipodi:namedview
     id="namedview8"
     pagecolor="#ffffff"
     bordercolor="#666666"
     borderopacity="1.0"
     inkscape:showpageshadow="2"
     inkscape:pageopacity="0.0"
     inkscape:pagecheckerboard="0"
     inkscape:deskcolor="#d1d1d1"
     showgrid="false"
     inkscape:zoom="18.25"
     inkscape:cx="8.2739726"
     inkscape:cy="11.452055"
     inkscape:window-width="1920"
     inkscape:window-height="1022"
     inkscape:window-x="1366"
     inkscape:window-y="0"
     inkscape:window-maximized="1"
     inkscape:current-layer="svg6" />
  <g
     id="g1580"
     transform="matrix(1.0005182,0,0,1.0005182,5.997747,5.995059)">
    <path
       d="m 11.9971,3.00588 c 0,-0.87302 -1.0403,-1.32685 -1.6803,-0.733 L 6.44467,5.86626 C 6.3522,5.95208 6.23071,5.99976 6.10456,5.99976 H 3.49707 c -0.82843,0 -1.5,0.67158 -1.5,1.5 v 5.00004 c 0,0.8284 0.67157,1.5 1.5,1.5 h 2.60749 c 0.12615,0 0.24764,0.0476 0.34011,0.1335 l 3.87213,3.5933 c 0.64,0.5939 1.6803,0.1401 1.6803,-0.733 z"
       fill="#212121"
       id="path2" />
    <path
       d="m 13.1435,7.6462 c 0.1953,-0.19526 0.5119,-0.19526 0.7071,0 l 1.6465,1.64645 1.6464,-1.64645 c 0.1953,-0.19526 0.5119,-0.19526 0.7071,0 0.1953,0.19526 0.1953,0.51185 0,0.70711 l -1.6464,1.64645 1.6464,1.64644 c 0.1953,0.1953 0.1953,0.5118 0,0.7071 -0.1952,0.1953 -0.5118,0.1953 -0.7071,0 l -1.6464,-1.6464 -1.6465,1.6464 c -0.1952,0.1953 -0.5118,0.1953 -0.7071,0 -0.1952,-0.1953 -0.1952,-0.5118 0,-0.7071 L 14.79,9.99976 13.1435,8.35331 c -0.1952,-0.19526 -0.1952,-0.51185 0,-0.70711 z"
       fill="#212121"
       id="path4" />
  </g>
</svg>
