<?xml version="1.0" encoding="UTF-8" standalone="no"?>
<svg
   id="Icons"
   style="enable-background:new 0 0 32 32;"
   version="1.1"
   viewBox="0 0 32 32"
   xml:space="preserve"
   sodipodi:docname="playlist.svg"
   inkscape:version="1.2.1 (9c6d41e410, 2022-07-14, custom)"
   xmlns:inkscape="http://www.inkscape.org/namespaces/inkscape"
   xmlns:sodipodi="http://sodipodi.sourceforge.net/DTD/sodipodi-0.dtd"
   xmlns="http://www.w3.org/2000/svg"
   xmlns:svg="http://www.w3.org/2000/svg"><defs
     id="defs19" /><sodipodi:namedview
     id="namedview17"
     pagecolor="#ffffff"
     bordercolor="#666666"
     borderopacity="1.0"
     inkscape:showpageshadow="2"
     inkscape:pageopacity="0.0"
     inkscape:pagecheckerboard="0"
     inkscape:deskcolor="#d1d1d1"
     showgrid="false"
     inkscape:zoom="22.8125"
     inkscape:cx="16"
     inkscape:cy="16"
     inkscape:window-width="1366"
     inkscape:window-height="740"
     inkscape:window-x="0"
     inkscape:window-y="211"
     inkscape:window-maximized="1"
     inkscape:current-layer="Icons" /><g
     id="g14"
     transform="matrix(0.91952165,0,0,0.91952165,1.4642761,1.2533938)"><path
       d="M 29.5,13.1 C 29.3,11.9 28.6,10.9 27.5,10.2 25.7,9 24.2,7.3 23.2,5.4 L 22.8,4.6 C 22.6,4.2 22.1,4 21.7,4.1 21.3,4.1 21,4.5 21,5 V 20.8 C 20.2,20.3 19.1,20 18,20 c -2.8,0 -5,1.8 -5,4 0,2.2 2.2,4 5,4 2.8,0 5,-1.8 5,-4 V 8.6 c 1,1.2 2.1,2.3 3.4,3.2 0.6,0.4 1,1 1.1,1.7 0.1,0.7 0,1.4 -0.4,2 -0.3,0.5 -0.2,1.1 0.3,1.4 0.5,0.3 1.1,0.2 1.4,-0.3 0.7,-1.1 1,-2.3 0.7,-3.5 z"
       id="path2" /><path
       d="M 10,25 H 3 c -0.6,0 -1,0.4 -1,1 0,0.6 0.4,1 1,1 h 7 c 0.6,0 1,-0.4 1,-1 0,-0.6 -0.4,-1 -1,-1 z"
       id="path4" /><path
       d="M 10,20 H 3 c -0.6,0 -1,0.4 -1,1 0,0.6 0.4,1 1,1 h 7 c 0.6,0 1,-0.4 1,-1 0,-0.6 -0.4,-1 -1,-1 z"
       id="path6" /><path
       d="m 3,17 h 14 c 0.6,0 1,-0.4 1,-1 0,-0.6 -0.4,-1 -1,-1 H 3 c -0.6,0 -1,0.4 -1,1 0,0.6 0.4,1 1,1 z"
       id="path8" /><path
       d="m 3,12 h 14 c 0.6,0 1,-0.4 1,-1 0,-0.6 -0.4,-1 -1,-1 H 3 c -0.6,0 -1,0.4 -1,1 0,0.6 0.4,1 1,1 z"
       id="path10" /><path
       d="M 3,7 H 17 C 17.6,7 18,6.6 18,6 18,5.4 17.6,5 17,5 H 3 C 2.4,5 2,5.4 2,6 2,6.6 2.4,7 3,7 Z"
       id="path12" /></g></svg>
