<?xml version="1.0" encoding="UTF-8" standalone="no"?>
<svg
   height="32px"
   id="Layer_1"
   style="enable-background:new 0 0 32 32;"
   version="1.1"
   viewBox="0 0 32 32"
   width="32px"
   xml:space="preserve"
   sodipodi:docname="plus.svg"
   inkscape:version="1.2.1 (9c6d41e410, 2022-07-14, custom)"
   xmlns:inkscape="http://www.inkscape.org/namespaces/inkscape"
   xmlns:sodipodi="http://sodipodi.sourceforge.net/DTD/sodipodi-0.dtd"
   xmlns="http://www.w3.org/2000/svg"
   xmlns:svg="http://www.w3.org/2000/svg"><defs
     id="defs7" /><sodipodi:namedview
     id="namedview5"
     pagecolor="#ffffff"
     bordercolor="#666666"
     borderopacity="1.0"
     inkscape:showpageshadow="2"
     inkscape:pageopacity="0.0"
     inkscape:pagecheckerboard="0"
     inkscape:deskcolor="#d1d1d1"
     showgrid="false"
     inkscape:zoom="22.8125"
     inkscape:cx="16"
     inkscape:cy="16"
     inkscape:window-width="1920"
     inkscape:window-height="1022"
     inkscape:window-x="1366"
     inkscape:window-y="0"
     inkscape:window-maximized="1"
     inkscape:current-layer="Layer_1" /><path
     d="M 25.42857,14.42857 H 17.57143 V 6.5714289 C 17.57143,5.704 16.86743,5 16,5 15.13257,5 14.42857,5.704 14.42857,6.5714289 V 14.42857 H 6.5714289 C 5.704,14.42857 5,15.13257 5,16 c 0,0.86743 0.704,1.57143 1.5714289,1.57143 H 14.42857 v 7.85714 C 14.42857,26.296 15.13257,27 16,27 c 0.86743,0 1.57143,-0.704 1.57143,-1.57143 v -7.85714 h 7.85714 C 26.296,17.57143 27,16.86743 27,16 27,15.13257 26.296,14.42857 25.42857,14.42857 Z"
     id="path2"
     style="stroke-width:0.785711" /></svg>
