<?xml version="1.0" encoding="UTF-8" standalone="no"?>
<svg
   id="Icons"
   style="enable-background:new 0 0 32 32;"
   version="1.1"
   viewBox="0 0 32 32"
   xml:space="preserve"
   sodipodi:docname="previous.svg"
   inkscape:version="1.2.1 (9c6d41e410, 2022-07-14, custom)"
   xmlns:inkscape="http://www.inkscape.org/namespaces/inkscape"
   xmlns:sodipodi="http://sodipodi.sourceforge.net/DTD/sodipodi-0.dtd"
   xmlns="http://www.w3.org/2000/svg"
   xmlns:svg="http://www.w3.org/2000/svg"><defs
     id="defs7" /><sodipodi:namedview
     id="namedview5"
     pagecolor="#ffffff"
     bordercolor="#666666"
     borderopacity="1.0"
     inkscape:showpageshadow="2"
     inkscape:pageopacity="0.0"
     inkscape:pagecheckerboard="0"
     inkscape:deskcolor="#d1d1d1"
     showgrid="false"
     inkscape:zoom="16"
     inkscape:cx="5.9375"
     inkscape:cy="20.125"
     inkscape:window-width="1920"
     inkscape:window-height="1022"
     inkscape:window-x="1366"
     inkscape:window-y="0"
     inkscape:window-maximized="1"
     inkscape:current-layer="Icons" /><path
     d="m 6.3831606,23.990986 h 1.1508268 c 0.5996628,0 0.9994372,-0.399775 0.9994372,-0.999437 v -4.997184 l 7.3958314,5.696789 c 0.299832,0.199888 0.699606,0.299832 1.099381,0.09995 0.299831,-0.09995 0.499718,-0.399775 0.499718,-0.79955 V 17.99437 l 7.395832,5.796734 c 0.299831,0.199887 0.699606,0.29983 0.999437,0.09994 0.399775,-0.199888 0.599662,-0.499718 0.599662,-0.899493 V 8.9994351 c 0,-0.3997744 -0.199887,-0.6996057 -0.599662,-0.899493 -0.09994,-0.099944 -0.299831,-0.099944 -0.399774,-0.099944 -0.199888,0 -0.399776,0.099944 -0.599663,0.1998871 L 17.528355,13.996619 V 8.9994351 c 0,-0.3997744 -0.199887,-0.6996057 -0.599662,-0.899493 -0.09994,-0.099944 -0.299831,-0.099944 -0.399774,-0.099944 -0.199887,0 -0.399776,0.099944 -0.599663,0.1998871 L 8.5334246,13.996619 V 8.9994351 c 0,-0.5996628 -0.3997744,-0.9994372 -0.9994372,-0.9994372 H 6.4680608 c -0.5996622,0 -0.9888656,0.3997744 -0.9889674,0.9994372 L 5.476714,22.991549 c -8.26e-5,0.599662 0.306793,0.999437 0.9064585,0.999437 z"
     id="path2"
     sodipodi:nodetypes="ssscccscccsscsccscsccssssss"
     style="stroke-width:0.999444" /></svg>
