<?xml version="1.0" encoding="UTF-8" standalone="no"?>
<svg
   viewBox="0 0 32 32"
   version="1.1"
   id="svg7"
   sodipodi:docname="repeat-off.svg"
   inkscape:version="1.2.1 (9c6d41e410, 2022-07-14, custom)"
   xmlns:inkscape="http://www.inkscape.org/namespaces/inkscape"
   xmlns:sodipodi="http://sodipodi.sourceforge.net/DTD/sodipodi-0.dtd"
   xmlns="http://www.w3.org/2000/svg"
   xmlns:svg="http://www.w3.org/2000/svg">
  <defs
     id="defs11" />
  <sodipodi:namedview
     id="namedview9"
     pagecolor="#ffffff"
     bordercolor="#666666"
     borderopacity="1.0"
     inkscape:showpageshadow="2"
     inkscape:pageopacity="0.0"
     inkscape:pagecheckerboard="0"
     inkscape:deskcolor="#d1d1d1"
     showgrid="false"
     inkscape:zoom="22.812499"
     inkscape:cx="10.520548"
     inkscape:cy="21.216439"
     inkscape:window-width="1920"
     inkscape:window-height="1022"
     inkscape:window-x="1366"
     inkscape:window-y="0"
     inkscape:window-maximized="1"
     inkscape:current-layer="svg7" />
  <title
     id="title2" />
  <g
     data-name="Layer 2"
     id="Layer_2"
     transform="matrix(1.4980789,0,0,1.4980789,-5.386008,2.9961577)" />
  <g
     id="g332"
     transform="matrix(1.143643,0,0,1.143643,-2.355904,-5.2535209)">
    <path
       d="m 22,9 a 1,1 0 0 0 0,1.42 l 4.6,4.6 H 3.06 a 1,1 0 1 0 0,2 H 26.58 L 22,21.59 a 1,1 0 0 0 0,1.41 1,1 0 0 0 1.41,0 l 6.36,-6.36 a 0.88,0.88 0 0 0 0,-1.27 L 23.42,9 A 1,1 0 0 0 22,9 Z"
       id="path4"
       transform="translate(0,6)" />
    <text
       xml:space="preserve"
       style="font-style:normal;font-weight:normal;font-size:16.4111px;line-height:1.25;font-family:sans-serif;fill:#000000;fill-opacity:1;stroke:none;stroke-width:0.192318"
       x="9.5237951"
       y="19.841003"
       id="text232"><tspan
         sodipodi:role="line"
         id="tspan230"
         x="9.5237951"
         y="19.841003"
         style="font-size:16.4111px;stroke-width:0.192318">A</tspan></text>
  </g>
</svg>
