<?xml version="1.0" encoding="UTF-8" standalone="no"?>
<svg
   style="enable-background:new 0 0 24 24;"
   version="1.1"
   viewBox="0 0 24 24"
   xml:space="preserve"
   id="svg14"
   sodipodi:docname="shuffle-off.svg"
   inkscape:version="1.2.1 (9c6d41e410, 2022-07-14, custom)"
   xmlns:inkscape="http://www.inkscape.org/namespaces/inkscape"
   xmlns:sodipodi="http://sodipodi.sourceforge.net/DTD/sodipodi-0.dtd"
   xmlns="http://www.w3.org/2000/svg"
   xmlns:svg="http://www.w3.org/2000/svg"><defs
     id="defs18" /><sodipodi:namedview
     id="namedview16"
     pagecolor="#ffffff"
     bordercolor="#666666"
     borderopacity="1.0"
     inkscape:showpageshadow="2"
     inkscape:pageopacity="0.0"
     inkscape:pagecheckerboard="0"
     inkscape:deskcolor="#d1d1d1"
     showgrid="false"
     inkscape:zoom="21.507831"
     inkscape:cx="1.208862"
     inkscape:cy="6.9742039"
     inkscape:window-width="1920"
     inkscape:window-height="1022"
     inkscape:window-x="1366"
     inkscape:window-y="0"
     inkscape:window-maximized="1"
     inkscape:current-layer="svg14" /><style
     type="text/css"
     id="style2">
	.st0{opacity:0.2;fill:none;stroke:#000000;stroke-width:5.000000e-02;stroke-miterlimit:10;}
</style><g
     id="Layer_1" /><g
     id="Layer_2"
     transform="translate(0,-0.05)"><g
       id="g11"><path
         d="M 8.7,14.2 C 8,14.7 7.1,15 6.2,15 H 4 c -0.6,0 -1,0.4 -1,1 0,0.6 0.4,1 1,1 h 2.2 c 1.3,0 2.6,-0.4 3.7,-1.2 0.4,-0.3 0.5,-1 0.2,-1.4 -0.4,-0.5 -1,-0.6 -1.4,-0.2 z"
         id="path5" /><path
         d="m 13,10.7 c 0.3,0 0.6,-0.1 0.8,-0.3 0.7,-0.9 1.8,-1.4 3,-1.4 h 0.8 l -0.3,0.3 c -0.4,0.4 -0.4,1 0,1.4 0.2,0.2 0.5,0.3 0.7,0.3 0.2,0 0.5,-0.1 0.7,-0.3 l 2,-2 C 20.8,8.6 20.9,8.5 20.9,8.4 21,8.2 21,7.9 20.9,7.6 20.8,7.5 20.8,7.4 20.7,7.3 l -2,-2 c -0.4,-0.4 -1,-0.4 -1.4,0 -0.4,0.4 -0.4,1 0,1.4 L 17.6,7 h -0.8 c -1.8,0 -3.4,0.8 -4.6,2.1 -0.4,0.4 -0.3,1 0.1,1.4 0.2,0.2 0.5,0.2 0.7,0.2 z"
         id="path7" /><path
         d="m 20.7,15.3 -2,-2 c -0.4,-0.4 -1,-0.4 -1.4,0 -0.4,0.4 -0.4,1 0,1.4 l 0.3,0.3 h -1.5 c -1.6,0 -2.9,-0.9 -3.6,-2.3 L 11.3,10.3 C 10.3,8.3 8.2,7 5.9,7 H 4 C 3.4,7 3,7.4 3,8 3,8.6 3.4,9 4,9 h 1.9 c 1.6,0 2.9,0.9 3.6,2.3 l 1.2,2.4 c 1,2.1 3.1,3.4 5.4,3.4 h 1.5 l -0.3,0.3 c -0.4,0.4 -0.4,1 0,1.4 0.2,0.2 0.5,0.3 0.7,0.3 0.2,0 0.5,-0.1 0.7,-0.3 l 2,-2 c 0.4,-0.5 0.4,-1.1 0,-1.5 z"
         id="path9" /></g></g><rect
     style="fill:#000000;fill-opacity:1;stroke:#000000;stroke-width:1.11099;stroke-dasharray:none;stroke-opacity:1"
     id="rect180"
     width="0.51886755"
     height="23.13833"
     x="-1.88255"
     y="-28.353758"
     transform="matrix(-0.81218159,0.58340472,-0.63640119,-0.77135823,0,0)"
     ry="0.25943378" /></svg>
