<?xml version="1.0" encoding="UTF-8" standalone="no"?>
<svg
   fill="none"
   height="32"
   viewBox="0 0 32 32"
   width="32"
   version="1.1"
   id="svg266"
   sodipodi:docname="volume-level-2.svg"
   inkscape:version="1.2.1 (9c6d41e410, 2022-07-14, custom)"
   xmlns:inkscape="http://www.inkscape.org/namespaces/inkscape"
   xmlns:sodipodi="http://sodipodi.sourceforge.net/DTD/sodipodi-0.dtd"
   xmlns="http://www.w3.org/2000/svg"
   xmlns:svg="http://www.w3.org/2000/svg">
  <defs
     id="defs270" />
  <sodipodi:namedview
     id="namedview268"
     pagecolor="#ffffff"
     bordercolor="#666666"
     borderopacity="1.0"
     inkscape:showpageshadow="2"
     inkscape:pageopacity="0.0"
     inkscape:pagecheckerboard="0"
     inkscape:deskcolor="#d1d1d1"
     showgrid="false"
     inkscape:zoom="36.5"
     inkscape:cx="10"
     inkscape:cy="10"
     inkscape:window-width="1920"
     inkscape:window-height="1022"
     inkscape:window-x="1366"
     inkscape:window-y="0"
     inkscape:window-maximized="1"
     inkscape:current-layer="svg266" />
  <g
     id="g1831"
     transform="matrix(1.0005182,0,0,1.0005182,5.9963438,5.995059)">
    <path
       d="M 12,3.00588 C 12,2.13286 10.9597,1.67903 10.3198,2.27288 L 6.4476,5.86626 C 6.35513,5.95208 6.23364,5.99976 6.10749,5.99976 H 3.5 c -0.82843,0 -1.5,0.67158 -1.5,1.5 v 5.00004 c 0,0.8284 0.67157,1.5 1.5,1.5 h 2.60749 c 0.12615,0 0.24764,0.0476 0.34011,0.1335 l 3.8722,3.5933 C 10.9597,18.3205 12,17.8667 12,16.9936 Z"
       fill="#212121"
       id="path260" />
    <path
       d="m 15.2537,4.6274 c 0.2057,-0.18427 0.5218,-0.16693 0.7061,0.03874 2.7162,3.03158 2.7162,7.63566 0,10.66726 -0.1842,0.2057 -0.5004,0.2231 -0.706,0.0388 -0.2057,-0.1843 -0.223,-0.5004 -0.0388,-0.7061 2.376,-2.6518 2.376,-6.68087 0,-9.33266 C 15.0307,5.12778 15.0481,4.81167 15.2537,4.6274 Z"
       fill="#212121"
       id="path262" />
    <path
       d="m 14.0785,12.933 c -0.2392,-0.1378 -0.3215,-0.4435 -0.1837,-0.6828 0.7762,-1.3476 0.8317,-3.05881 -6e-4,-4.5005 -0.1381,-0.23914 -0.0562,-0.54494 0.183,-0.68301 0.2391,-0.13807 0.5449,-0.05613 0.683,0.18301 1.018,1.76327 0.9482,3.8555 0.0012,5.4996 -0.1379,0.2393 -0.4436,0.3215 -0.6829,0.1837 z"
       fill="#212121"
       id="path264" />
  </g>
</svg>
