<svg width="24" height="24" viewBox="0 0 24 24" fill="none" xmlns="http://www.w3.org/2000/svg">
<path d="M16.6154 5H5.46154C3.53846 5 2 6.60714 2 8.61607C2 10.625 3.53846 12.2321 5.46154 12.2321H13.1538C15.0769 12.2321 16.6154 10.625 16.6154 8.61607V8.21429C16.6154 6.44643 18 5 19.6923 5H16.6154Z" stroke="white" stroke-width="1.5" stroke-miterlimit="10" stroke-linecap="round" stroke-linejoin="round"/>
<path d="M17.3854 7.41064C19.0777 7.41064 20.4624 9.01779 20.4624 11.0267C20.4624 13.0356 19.0777 14.6428 17.3854 14.6428C16.1547 14.6428 15.1547 13.8392 14.6162 12.7142" stroke="white" stroke-width="1.5" stroke-miterlimit="10" stroke-linecap="round" stroke-linejoin="round"/>
<path d="M5.07666 12.2324C5.07666 13.5985 6.07666 14.6431 7.38435 14.6431H17.3844" stroke="white" stroke-width="1.5" stroke-miterlimit="10" stroke-linecap="round" stroke-linejoin="round"/>
<path d="M16.6152 7.8125C16.6152 7.41071 16.6922 7.00893 16.846 6.6875C17.3075 5.72321 18.2306 5 19.3075 5C20.7691 5 21.9998 6.28571 21.9998 7.8125C21.9998 9.17857 21.3845 10.3839 20.4614 11.1875" stroke="white" stroke-width="1.5" stroke-miterlimit="10" stroke-linecap="round" stroke-linejoin="round"/>
<path d="M11.2305 16.7856V18.6339C11.2305 19.3973 9.99973 19.9999 8.44076 19.9999H7.12794" stroke="white" stroke-width="1.5" stroke-miterlimit="10" stroke-linecap="round" stroke-linejoin="round"/>
</svg>
