<?xml version="1.0" encoding="UTF-8" standalone="no"?>
<svg
   width="24"
   height="24"
   viewBox="0 0 24 24"
   fill="none"
   version="1.1"
   id="svg60"
   sodipodi:docname="icon.svg"
   inkscape:version="1.2.1 (9c6d41e410, 2022-07-14, custom)"
   xmlns:inkscape="http://www.inkscape.org/namespaces/inkscape"
   xmlns:sodipodi="http://sodipodi.sourceforge.net/DTD/sodipodi-0.dtd"
   xmlns="http://www.w3.org/2000/svg"
   xmlns:svg="http://www.w3.org/2000/svg">
  <sodipodi:namedview
     id="namedview62"
     pagecolor="#ffffff"
     bordercolor="#666666"
     borderopacity="1.0"
     inkscape:showpageshadow="2"
     inkscape:pageopacity="0.0"
     inkscape:pagecheckerboard="0"
     inkscape:deskcolor="#d1d1d1"
     showgrid="false"
     inkscape:zoom="22.8125"
     inkscape:cx="15.583562"
     inkscape:cy="16"
     inkscape:window-width="1920"
     inkscape:window-height="1022"
     inkscape:window-x="1366"
     inkscape:window-y="0"
     inkscape:window-maximized="1"
     inkscape:current-layer="svg60" />
  <g
     id="g930"
     transform="matrix(0.84002659,0,0,0.84002659,-1.4404548,-1.4406516)">
    <path
       fill-rule="evenodd"
       clip-rule="evenodd"
       d="m 9.06669,21.4003 c 2.43911,0 4.41631,-1.9578 4.41631,-4.3729 0,-2.4151 -1.9772,-4.3729 -4.41631,-4.3729 -2.43907,0 -4.41632,1.9578 -4.41632,4.3729 0,2.4151 1.97725,4.3729 4.41632,4.3729 z m 0,1.9642 c 3.53461,0 6.40001,-2.8372 6.40001,-6.3371 0,-3.4999 -2.8654,-6.3372 -6.40001,-6.3372 -3.53463,0 -6.40002,2.8373 -6.40002,6.3372 0,3.4999 2.86539,6.3371 6.40002,6.3371 z"
       fill="url(#paint0_linear_5_120)"
       id="path2"
       style="fill:url(#paint0_linear_5_120)" />
    <path
       fill-rule="evenodd"
       clip-rule="evenodd"
       d="m 22.9334,21.4002 c 2.439,0 4.4163,-1.9579 4.4163,-4.373 0,-2.4151 -1.9773,-4.3729 -4.4163,-4.3729 -2.4391,0 -4.4163,1.9578 -4.4163,4.3729 0,2.4151 1.9772,4.373 4.4163,4.373 z m 0,1.9642 c 3.5346,0 6.4,-2.8373 6.4,-6.3372 0,-3.4999 -2.8654,-6.3371 -6.4,-6.3371 -3.5347,0 -6.4,2.8372 -6.4,6.3371 0,3.4999 2.8653,6.3372 6.4,6.3372 z"
       fill="url(#paint1_linear_5_120)"
       id="path4"
       style="fill:url(#paint1_linear_5_120)" />
    <path
       d="m 23.1886,15.9479 c -0.8898,0 -1.6688,0.57 -1.7559,1.3607 -0.026,0.2358 0.1901,0.4081 0.4297,0.4081 h 2.704 c 0.237,0 0.452,-0.1695 0.4191,-0.4019 -0.1064,-0.7518 -0.9137,-1.3669 -1.7969,-1.3669 z"
       fill="url(#paint2_linear_5_120)"
       id="path6"
       style="fill:url(#paint2_linear_5_120)" />
    <path
       d="m 8.8967,15.9479 c -0.88983,0 -1.66878,0.57 -1.7559,1.3607 -0.02599,0.2358 0.19016,0.4081 0.42975,0.4081 h 2.70395 c 0.237,0 0.452,-0.1695 0.4191,-0.4019 C 10.5872,16.563 9.77994,15.9479 8.8967,15.9479 Z"
       fill="url(#paint3_linear_5_120)"
       id="path8"
       style="fill:url(#paint3_linear_5_120)" />
    <path
       d="m 13.8723,23.8498 c -0.1157,-0.9816 0.6573,-1.859 1.6554,-1.859 h 1.0016 c 0.973,0 1.7319,0.8452 1.6351,1.8039 -0.0889,0.8808 -0.4563,1.7216 -1.0483,2.3849 -0.5902,0.6613 -1.6413,0.6463 -2.2226,-0.0226 -0.5614,-0.646 -0.9215,-1.4608 -1.0212,-2.3072 z"
       fill="url(#paint4_linear_5_120)"
       id="path10"
       style="fill:url(#paint4_linear_5_120)" />
    <path
       d="m 13.5469,9.66771 c -0.3887,0.03499 -0.414,0.31396 -0.3607,0.51879 0.0202,0.0776 0.0738,0.14 0.1373,0.1896 0.5475,0.4274 1.5155,1.254 2.1056,1.9825 0.2189,0.2702 0.4146,0.6546 0.7446,0.5398 0.1178,-0.0409 0.232,-0.1694 0.3014,-0.2721 0.5978,-0.8846 1.6675,-1.8293 2.2189,-2.2631 0.0526,-0.0413 0.0998,-0.0908 0.1214,-0.1538 0.11,-0.32087 -0.2197,-0.49332 -0.4151,-0.54169 -2.0267,-0.35497 -3.1548,-0.34924 -4.8534,0 z"
       fill="url(#paint5_linear_5_120)"
       id="path12"
       style="fill:url(#paint5_linear_5_120)" />
    <path
       d="M 10.0422,9.66794 C 8.02878,9.14973 5.96376,10.1861 5.91213,10.1861 5.70563,10.2276 5.65401,10.0307 5.65401,9.92704 V 6.46325 c 0,-0.10841 0.01742,-0.21612 0.05162,-0.31911 L 5.75726,6.0405 C 6.06701,5.5223 6.53164,5.10773 7.51253,5.47048 c 0.98088,0.36274 2.32315,2.69467 2.78777,3.5238 0.3717,0.6633 -0.0172,0.72548 -0.2581,0.67366 z"
       fill="url(#paint6_linear_5_120)"
       id="path14"
       style="fill:url(#paint6_linear_5_120)" />
    <path
       d="m 21.9584,9.70182 c 2.0134,-0.51821 4.0784,0.51818 4.13,0.51818 0.2065,0.0415 0.2581,-0.1554 0.2581,-0.25908 V 6.49713 c 0,-0.10841 -0.0174,-0.21613 -0.0516,-0.31911 L 26.2433,6.07438 C 25.9335,5.55617 25.4689,5.14161 24.488,5.50435 c -0.9809,0.36274 -2.3231,2.69467 -2.7878,3.5238 -0.3717,0.6633 0.0172,0.72549 0.2582,0.67367 z"
       fill="url(#paint7_linear_5_120)"
       id="path16"
       style="fill:url(#paint7_linear_5_120)" />
  </g>
  <defs
     id="defs58">
    <linearGradient
       id="paint0_linear_5_120"
       x1="2.6666701"
       y1="10.6902"
       x2="15.3404"
       y2="23.4897"
       gradientUnits="userSpaceOnUse">
      <stop
         stop-color="#13EC91"
         id="stop18" />
      <stop
         offset="1"
         stop-color="#2ED671"
         id="stop20" />
    </linearGradient>
    <linearGradient
       id="paint1_linear_5_120"
       x1="16.5334"
       y1="10.6901"
       x2="29.207001"
       y2="23.4895"
       gradientUnits="userSpaceOnUse">
      <stop
         stop-color="#13EC91"
         id="stop23" />
      <stop
         offset="1"
         stop-color="#2ED671"
         id="stop25" />
    </linearGradient>
    <linearGradient
       id="paint2_linear_5_120"
       x1="21.430599"
       y1="15.9479"
       x2="22.8407"
       y2="18.784599"
       gradientUnits="userSpaceOnUse">
      <stop
         stop-color="#13EC91"
         id="stop28" />
      <stop
         offset="1"
         stop-color="#2ED671"
         id="stop30" />
    </linearGradient>
    <linearGradient
       id="paint3_linear_5_120"
       x1="7.13867"
       y1="15.9479"
       x2="8.54881"
       y2="18.784599"
       gradientUnits="userSpaceOnUse">
      <stop
         stop-color="#13EC91"
         id="stop33" />
      <stop
         offset="1"
         stop-color="#2ED671"
         id="stop35" />
    </linearGradient>
    <linearGradient
       id="paint4_linear_5_120"
       x1="16.056601"
       y1="21.7831"
       x2="16.8442"
       y2="26.815901"
       gradientUnits="userSpaceOnUse">
      <stop
         stop-color="#13EC91"
         id="stop38" />
      <stop
         offset="1"
         stop-color="#2ED671"
         stop-opacity="0.6"
         id="stop40" />
    </linearGradient>
    <linearGradient
       id="paint5_linear_5_120"
       x1="16.0567"
       y1="9.26122"
       x2="14.6202"
       y2="12.2547"
       gradientUnits="userSpaceOnUse">
      <stop
         stop-color="#13EC91"
         id="stop43" />
      <stop
         offset="1"
         stop-color="#2ED671"
         stop-opacity="0.8"
         id="stop45" />
    </linearGradient>
    <linearGradient
       id="paint6_linear_5_120"
       x1="5.6540098"
       y1="5.3333101"
       x2="10.5121"
       y2="10.133"
       gradientUnits="userSpaceOnUse">
      <stop
         stop-color="#13EC91"
         id="stop48" />
      <stop
         offset="1"
         stop-color="#2ED671"
         stop-opacity="0.6"
         id="stop50" />
    </linearGradient>
    <linearGradient
       id="paint7_linear_5_120"
       x1="26.3465"
       y1="5.3671899"
       x2="21.4884"
       y2="10.1669"
       gradientUnits="userSpaceOnUse">
      <stop
         stop-color="#13EC91"
         id="stop53" />
      <stop
         offset="1"
         stop-color="#2ED671"
         stop-opacity="0.6"
         id="stop55" />
    </linearGradient>
  </defs>
</svg>
