<svg width="24" height="24" viewBox="0 0 24 24" fill="none" xmlns="http://www.w3.org/2000/svg">
<path d="M17.9697 20.6701H6.04974C5.04365 20.6674 4.07968 20.2659 3.3692 19.5536C2.65872 18.8412 2.25976 17.8762 2.25977 16.8701V9.65009C2.2846 9.06576 2.44186 8.4947 2.71973 7.98007L4.71973 4.65009C4.97832 4.26593 5.32236 3.94684 5.72485 3.71783C6.12735 3.48883 6.57738 3.35612 7.03973 3.33008H16.9697C17.4338 3.3546 17.8859 3.4866 18.2902 3.71567C18.6946 3.94474 19.0401 4.26463 19.2997 4.65009L21.2997 7.98007C21.5851 8.49221 21.7462 9.06427 21.7698 9.65009V16.8701C21.7671 17.8771 21.3659 18.8421 20.6539 19.5542C19.9418 20.2662 18.9767 20.6674 17.9697 20.6701V20.6701Z" stroke="white" stroke-width="1.5" stroke-miterlimit="10" stroke-linecap="round"/>
<path d="M2.25977 9.83008L6.66974 10.7101C6.96223 10.7888 7.23017 10.94 7.44867 11.1497C7.66717 11.3595 7.82918 11.621 7.91974 11.9101L8.23975 13.2001C8.41863 13.7638 8.76733 14.2585 9.2381 14.6165C9.70887 14.9745 10.2787 15.1783 10.8698 15.2001H13.1398C13.7316 15.1812 14.3028 14.9785 14.7742 14.6201C15.2455 14.2617 15.5935 13.7653 15.7698 13.2001L16.0898 11.9101C16.1821 11.6203 16.3459 11.3585 16.5661 11.1487C16.7863 10.939 17.0558 10.7881 17.3497 10.7101L21.7598 9.83008" stroke="white" stroke-width="1.5" stroke-miterlimit="10" stroke-linecap="round"/>
</svg>
