<svg width="24" height="24" viewBox="0 0 24 24" fill="none" xmlns="http://www.w3.org/2000/svg">
<path fill-rule="evenodd" clip-rule="evenodd" d="M7.11846 3H7.06336H7.06336C6.57849 2.99999 6.17373 2.99999 5.84142 3.02266C5.49549 3.04626 5.16874 3.09714 4.85195 3.22836C4.11687 3.53284 3.53284 4.11687 3.22836 4.85195C3.09714 5.16874 3.04626 5.49549 3.02266 5.84142C2.99999 6.17372 2.99999 6.57849 3 7.06335V7.06336V7.11846V7.11847C2.99999 7.60333 2.99999 8.0081 3.02266 8.3404C3.04626 8.68633 3.09714 9.01308 3.22836 9.32987C3.53284 10.065 4.11687 10.649 4.85195 10.9535C5.16874 11.0847 5.49549 11.1356 5.84142 11.1592C6.17372 11.1818 6.57849 11.1818 7.06336 11.1818H7.11846C7.60333 11.1818 8.0081 11.1818 8.3404 11.1592C8.68633 11.1356 9.01308 11.0847 9.32987 10.9535C10.065 10.649 10.649 10.065 10.9535 9.32987C11.0847 9.01308 11.1356 8.68633 11.1592 8.3404C11.1818 8.00809 11.1818 7.60333 11.1818 7.11846V7.06336C11.1818 6.57849 11.1818 6.17372 11.1592 5.84142C11.1356 5.49549 11.0847 5.16874 10.9535 4.85195C10.649 4.11687 10.065 3.53284 9.32987 3.22836C9.01308 3.09714 8.68633 3.04626 8.3404 3.02266C8.00809 2.99999 7.60333 2.99999 7.11846 3H7.11846ZM5.47816 4.74016C5.56233 4.7053 5.6902 4.67314 5.95281 4.65523C6.22277 4.63681 6.57142 4.63636 7.09091 4.63636C7.6104 4.63636 7.95905 4.63681 8.22901 4.65523C8.49162 4.67314 8.61949 4.7053 8.70366 4.74016C9.03779 4.87857 9.30325 5.14403 9.44165 5.47816C9.47652 5.56233 9.50867 5.6902 9.52659 5.95281C9.54501 6.22277 9.54545 6.57141 9.54545 7.09091C9.54545 7.6104 9.54501 7.95905 9.52659 8.22901C9.50867 8.49162 9.47652 8.61949 9.44165 8.70366C9.30325 9.03779 9.03779 9.30325 8.70366 9.44165C8.61949 9.47652 8.49162 9.50867 8.22901 9.52659C7.95905 9.54501 7.6104 9.54545 7.09091 9.54545C6.57142 9.54545 6.22277 9.54501 5.95281 9.52659C5.6902 9.50867 5.56233 9.47652 5.47816 9.44165C5.14403 9.30325 4.87857 9.03779 4.74016 8.70366C4.7053 8.61949 4.67314 8.49162 4.65523 8.22901C4.63681 7.95905 4.63636 7.6104 4.63636 7.09091C4.63636 6.57141 4.63681 6.22277 4.65523 5.95281C4.67314 5.6902 4.7053 5.56233 4.74016 5.47816C4.87857 5.14403 5.14403 4.87857 5.47816 4.74016ZM7.11846 12.8184H7.06336H7.06334H7.06332H7.0633C6.57846 12.8184 6.17371 12.8183 5.84142 12.841C5.49549 12.8646 5.16874 12.9155 4.85195 13.0467C4.11687 13.3512 3.53284 13.9352 3.22836 14.6703C3.09714 14.9871 3.04626 15.3139 3.02266 15.6598C2.99999 15.9921 2.99999 16.3968 3 16.8817V16.8817V16.9368V16.9368C2.99999 17.4217 2.99999 17.8265 3.02266 18.1588C3.04626 18.5047 3.09714 18.8314 3.22836 19.1482C3.53284 19.8833 4.11687 20.4673 4.85195 20.7718C5.16874 20.903 5.49549 20.9539 5.84142 20.9775C6.17371 21.0002 6.57845 21.0002 7.06327 21.0002H7.06336H7.11846H7.11854C7.60337 21.0002 8.00811 21.0002 8.3404 20.9775C8.68633 20.9539 9.01308 20.903 9.32987 20.7718C10.065 20.4673 10.649 19.8833 10.9535 19.1482C11.0847 18.8314 11.1356 18.5047 11.1592 18.1588C11.1818 17.8265 11.1818 17.4217 11.1818 16.9368V16.8817C11.1818 16.3969 11.1818 15.9921 11.1592 15.6598C11.1356 15.3139 11.0847 14.9871 10.9535 14.6703C10.649 13.9352 10.065 13.3512 9.32987 13.0467C9.01308 12.9155 8.68633 12.8646 8.3404 12.841C8.00811 12.8183 7.60336 12.8184 7.11852 12.8184H7.1185H7.11848H7.11846ZM5.47816 14.5585C5.56233 14.5237 5.6902 14.4915 5.95281 14.4736C6.22277 14.4552 6.57142 14.4547 7.09091 14.4547C7.6104 14.4547 7.95905 14.4552 8.22901 14.4736C8.49162 14.4915 8.61949 14.5237 8.70366 14.5585C9.03779 14.6969 9.30325 14.9624 9.44165 15.2965C9.47652 15.3807 9.50867 15.5086 9.52659 15.7712C9.54501 16.0411 9.54545 16.3898 9.54545 16.9093C9.54545 17.4288 9.54501 17.7774 9.52659 18.0474C9.50867 18.31 9.47652 18.4379 9.44165 18.522C9.30325 18.8561 9.03779 19.1216 8.70366 19.26C8.61949 19.2949 8.49162 19.327 8.22901 19.345C7.95905 19.3634 7.6104 19.3638 7.09091 19.3638C6.57142 19.3638 6.22277 19.3634 5.95281 19.345C5.6902 19.327 5.56233 19.2949 5.47816 19.26C5.14403 19.1216 4.87857 18.8561 4.74016 18.522C4.7053 18.4379 4.67314 18.31 4.65523 18.0474C4.63681 17.7774 4.63636 17.4288 4.63636 16.9093C4.63636 16.3898 4.63681 16.0411 4.65523 15.7712C4.67314 15.5086 4.7053 15.3807 4.74016 15.2965C4.87857 14.9624 5.14403 14.6969 5.47816 14.5585ZM16.8817 3H16.9368H16.9368C17.4217 2.99999 17.8265 2.99999 18.1588 3.02266C18.5047 3.04626 18.8314 3.09714 19.1482 3.22836C19.8833 3.53284 20.4673 4.11687 20.7718 4.85195C20.903 5.16874 20.9539 5.49549 20.9775 5.84142C21.0002 6.17371 21.0002 6.57845 21.0002 7.06328V7.06336V7.11846V7.11855C21.0002 7.60337 21.0002 8.00811 20.9775 8.3404C20.9539 8.68633 20.903 9.01308 20.7718 9.32987C20.4673 10.065 19.8833 10.649 19.1482 10.9535C18.8314 11.0847 18.5047 11.1356 18.1588 11.1592C17.8265 11.1818 17.4217 11.1818 16.9368 11.1818H16.8817C16.3969 11.1818 15.9921 11.1818 15.6598 11.1592C15.3139 11.1356 14.9871 11.0847 14.6703 10.9535C13.9352 10.649 13.3512 10.065 13.0467 9.32987C12.9155 9.01308 12.8646 8.68633 12.841 8.3404C12.8183 8.0081 12.8184 7.60335 12.8184 7.1185V7.11848V7.11846V7.06336V7.06334V7.06332C12.8184 6.57847 12.8183 6.17372 12.841 5.84142C12.8646 5.49549 12.9155 5.16874 13.0467 4.85195C13.3512 4.11687 13.9352 3.53284 14.6703 3.22836C14.9871 3.09714 15.3139 3.04626 15.6598 3.02266C15.9921 2.99999 16.3968 2.99999 16.8817 3H16.8817ZM15.7712 4.65523C15.5086 4.67314 15.3807 4.7053 15.2965 4.74016C14.9624 4.87857 14.6969 5.14403 14.5585 5.47816C14.5237 5.56233 14.4915 5.6902 14.4736 5.95281C14.4552 6.22277 14.4547 6.57142 14.4547 7.09091C14.4547 7.6104 14.4552 7.95905 14.4736 8.22901C14.4915 8.49162 14.5237 8.61949 14.5585 8.70366C14.6969 9.03779 14.9624 9.30325 15.2965 9.44165C15.3807 9.47652 15.5086 9.50867 15.7712 9.52659C16.0411 9.54501 16.3898 9.54545 16.9093 9.54545C17.4288 9.54545 17.7774 9.54501 18.0474 9.52659C18.31 9.50867 18.4379 9.47652 18.522 9.44165C18.8561 9.30325 19.1216 9.03779 19.26 8.70366C19.2949 8.61949 19.327 8.49162 19.345 8.22901C19.3634 7.95905 19.3638 7.6104 19.3638 7.09091C19.3638 6.57142 19.3634 6.22277 19.345 5.95281C19.327 5.6902 19.2949 5.56233 19.26 5.47816C19.1216 5.14403 18.8561 4.87857 18.522 4.74016C18.4379 4.7053 18.31 4.67314 18.0474 4.65523C17.7774 4.63681 17.4288 4.63636 16.9093 4.63636C16.3898 4.63636 16.0411 4.63681 15.7712 4.65523ZM16.9368 12.8184H16.8817H16.8817C16.3968 12.8184 15.9921 12.8183 15.6598 12.841C15.3139 12.8646 14.9871 12.9155 14.6703 13.0467C13.9352 13.3512 13.3512 13.9352 13.0467 14.6703C12.9155 14.9871 12.8646 15.3139 12.841 15.6598C12.8183 15.9921 12.8184 16.3968 12.8184 16.8817V16.8817V16.9368V16.9368C12.8184 17.4217 12.8183 17.8265 12.841 18.1588C12.8646 18.5047 12.9155 18.8314 13.0467 19.1482C13.3512 19.8833 13.9352 20.4673 14.6703 20.7718C14.9871 20.903 15.3139 20.9539 15.6598 20.9775C15.9921 21.0002 16.3968 21.0002 16.8816 21.0002H16.8817H16.9368H16.9369C17.4217 21.0002 17.8265 21.0002 18.1588 20.9775C18.5047 20.9539 18.8314 20.903 19.1482 20.7718C19.8833 20.4673 20.4673 19.8833 20.7718 19.1482C20.903 18.8314 20.9539 18.5047 20.9775 18.1588C21.0002 17.8265 21.0002 17.4217 21.0002 16.9369V16.9368V16.8817V16.8816C21.0002 16.3968 21.0002 15.9921 20.9775 15.6598C20.9539 15.3139 20.903 14.9871 20.7718 14.6703C20.4673 13.9352 19.8833 13.3512 19.1482 13.0467C18.8314 12.9155 18.5047 12.8646 18.1588 12.841C17.8265 12.8183 17.4217 12.8184 16.9368 12.8184H16.9368ZM15.2965 14.5585C15.3807 14.5237 15.5086 14.4915 15.7712 14.4736C16.0411 14.4552 16.3898 14.4547 16.9093 14.4547C17.4288 14.4547 17.7774 14.4552 18.0474 14.4736C18.31 14.4915 18.4379 14.5237 18.522 14.5585C18.8561 14.6969 19.1216 14.9624 19.26 15.2965C19.2949 15.3807 19.327 15.5086 19.345 15.7712C19.3634 16.0411 19.3638 16.3898 19.3638 16.9093C19.3638 17.4288 19.3634 17.7774 19.345 18.0474C19.327 18.31 19.2949 18.4379 19.26 18.522C19.1216 18.8561 18.8561 19.1216 18.522 19.26C18.4379 19.2949 18.31 19.327 18.0474 19.345C17.7774 19.3634 17.4288 19.3638 16.9093 19.3638C16.3898 19.3638 16.0411 19.3634 15.7712 19.345C15.5086 19.327 15.3807 19.2949 15.2965 19.26C14.9624 19.1216 14.6969 18.8561 14.5585 18.522C14.5237 18.4379 14.4915 18.31 14.4736 18.0474C14.4552 17.7774 14.4547 17.4288 14.4547 16.9093C14.4547 16.3898 14.4552 16.0411 14.4736 15.7712C14.4915 15.5086 14.5237 15.3807 14.5585 15.2965C14.6969 14.9624 14.9624 14.6969 15.2965 14.5585Z" fill="white"/>
</svg>
