<svg width="24" height="24" viewBox="0 0 24 24" fill="none" xmlns="http://www.w3.org/2000/svg">
<path d="M20.1301 20.0001L15.6601 18.5601L8.35013 20.4401L3.21013 18.8C3.00434 18.7225 2.82566 18.5866 2.69599 18.4089C2.56632 18.2313 2.4913 18.0197 2.48014 17.8V5.00006C2.46792 4.83087 2.49894 4.66134 2.57028 4.50745C2.64163 4.35355 2.75095 4.22034 2.88796 4.12033C3.02497 4.02032 3.18517 3.9568 3.35349 3.93576C3.52181 3.91472 3.69272 3.93686 3.85013 4.00006L8.32013 5.44006L15.6301 3.56006L20.7401 5.20004C20.9485 5.27491 21.13 5.40987 21.2617 5.58786C21.3934 5.76585 21.4695 5.97888 21.4801 6.20004V18.9901C21.4926 19.1576 21.4627 19.3256 21.3931 19.4785C21.3235 19.6315 21.2165 19.7644 21.0819 19.8651C20.9474 19.9657 20.7897 20.0308 20.6233 20.0544C20.457 20.078 20.2873 20.0593 20.1301 20.0001Z" stroke="white" stroke-width="1.5" stroke-linecap="round" stroke-linejoin="round"/>
<path d="M8.3501 5.43018V20.3602" stroke="white" stroke-width="1.5" stroke-linecap="round" stroke-linejoin="round"/>
<path d="M15.6602 3.64014V18.5701" stroke="white" stroke-width="1.5" stroke-linecap="round" stroke-linejoin="round"/>
</svg>
