<svg width="24" height="24" viewBox="0 0 24 24" fill="none" xmlns="http://www.w3.org/2000/svg">
<path d="M12 21.5C17.2467 21.5 21.5 17.2467 21.5 12C21.5 6.75329 17.2467 2.5 12 2.5C6.75329 2.5 2.5 6.75329 2.5 12C2.5 17.2467 6.75329 21.5 12 21.5Z" stroke="white" stroke-width="1.5" stroke-miterlimit="10" stroke-linecap="round"/>
<path d="M16.2202 13.0599C16.8056 13.0599 17.2802 12.5854 17.2802 11.9999C17.2802 11.4145 16.8056 10.9399 16.2202 10.9399C15.6347 10.9399 15.1602 11.4145 15.1602 11.9999C15.1602 12.5854 15.6347 13.0599 16.2202 13.0599Z" fill="white"/>
<path d="M12 13.06C12.5854 13.06 13.06 12.5854 13.06 12C13.06 11.4146 12.5854 10.94 12 10.94C11.4146 10.94 10.94 11.4146 10.94 12C10.94 12.5854 11.4146 13.06 12 13.06Z" fill="white"/>
<path d="M7.78021 13.0599C8.36563 13.0599 8.84021 12.5854 8.84021 11.9999C8.84021 11.4145 8.36563 10.9399 7.78021 10.9399C7.19479 10.9399 6.72021 11.4145 6.72021 11.9999C6.72021 12.5854 7.19479 13.0599 7.78021 13.0599Z" fill="white"/>
</svg>
