<svg width="24" height="24" viewBox="0 0 24 24" fill="none" xmlns="http://www.w3.org/2000/svg">
<path d="M12.2327 5.84863C13.7888 5.85172 15.2914 6.41654 16.4643 7.43921C17.6371 8.46188 18.4013 9.87365 18.6163 11.4148C18.8312 12.956 18.4825 14.523 17.6343 15.8275C16.786 17.1321 15.4952 18.0866 13.9993 18.5153" stroke="white" stroke-width="1.5" stroke-miterlimit="10" stroke-linecap="round"/>
<path d="M14.0663 8.85001L12.2246 5.84166L15.2329 4" stroke="white" stroke-width="1.5" stroke-linecap="round" stroke-linejoin="round"/>
<path d="M11.4749 18.4074C9.91366 18.4114 8.40381 17.8497 7.22478 16.8263C6.04576 15.8029 5.27738 14.387 5.06185 12.8407C4.84632 11.2943 5.19825 9.72231 6.05248 8.41548C6.9067 7.10864 8.20541 6.1555 9.70825 5.73242" stroke="white" stroke-width="1.5" stroke-miterlimit="10" stroke-linecap="round"/>
<path d="M9.63321 15.3984L11.4749 18.4151L8.46655 20.2484" stroke="white" stroke-width="1.5" stroke-linecap="round" stroke-linejoin="round"/>
</svg>
