<svg width="24" height="24" viewBox="0 0 24 24" fill="none" xmlns="http://www.w3.org/2000/svg">
<path d="M16.8798 21.7402H7.12982C6.12546 21.7376 5.16301 21.3374 4.45282 20.6273C3.74263 19.9171 3.34248 18.9546 3.33984 17.9502V6.04022C3.34247 5.03494 3.7423 4.07143 4.45221 3.35965C5.16212 2.64787 6.12455 2.24551 7.12982 2.24023H15.8898C16.1747 2.25946 16.4452 2.37192 16.6598 2.56024L20.3598 6.26022C20.5458 6.47533 20.6549 6.74627 20.6698 7.03024V17.9302C20.6724 18.4296 20.5764 18.9246 20.3871 19.3867C20.1978 19.8489 19.919 20.2691 19.5668 20.6231C19.2146 20.9772 18.796 21.2581 18.3348 21.4498C17.8737 21.6415 17.3792 21.7402 16.8798 21.7402V21.7402Z" stroke="white" stroke-width="1.5" stroke-miterlimit="10"/>
<path d="M16.3398 7.66025H20.6698V7.03024C20.6549 6.74627 20.5458 6.47533 20.3598 6.26022L16.6598 2.56024C16.4452 2.37192 16.1747 2.25946 15.8898 2.24023H15.2598V6.58023C15.2598 6.86666 15.3736 7.14136 15.5762 7.3439C15.7787 7.54644 16.0534 7.66025 16.3398 7.66025Z" stroke="white" stroke-width="1.5" stroke-miterlimit="10"/>
<path d="M7.66992 12H14.1699" stroke="white" stroke-width="1.5" stroke-miterlimit="10" stroke-linecap="round"/>
<path d="M7.66992 16.3301H11.9999" stroke="white" stroke-width="1.5" stroke-miterlimit="10" stroke-linecap="round"/>
</svg>
