<svg width="24" height="24" viewBox="0 0 24 24" fill="none" xmlns="http://www.w3.org/2000/svg">
<path d="M11.9999 14.5799C13.4248 14.5799 14.5799 13.4248 14.5799 11.9999C14.5799 10.575 13.4248 9.41992 11.9999 9.41992C10.575 9.41992 9.41992 10.575 9.41992 11.9999C9.41992 13.4248 10.575 14.5799 11.9999 14.5799Z" stroke="white" stroke-width="1.5" stroke-miterlimit="10"/>
<path d="M14.2898 4.21988C14.4842 4.90273 14.9353 5.4839 15.5485 5.84177C16.1617 6.19963 16.8896 6.30645 17.5798 6.13988C18.0908 5.99049 18.6372 6.01751 19.1309 6.21657C19.6247 6.41563 20.0371 6.77513 20.3016 7.23715C20.5661 7.69918 20.6673 8.23681 20.589 8.7634C20.5107 9.28999 20.2573 9.77485 19.8698 10.1399C19.3695 10.6518 19.0895 11.3391 19.0895 12.0549C19.0895 12.7706 19.3695 13.458 19.8698 13.9699C20.2573 14.3349 20.5107 14.8198 20.589 15.3464C20.6673 15.873 20.5661 16.4106 20.3016 16.8726C20.0371 17.3346 19.6247 17.6941 19.1309 17.8932C18.6372 18.0923 18.0908 18.1193 17.5798 17.9699C16.888 17.7945 16.155 17.8959 15.5368 18.2526C14.9187 18.6093 14.4641 19.1931 14.2698 19.8799C14.129 20.3761 13.8302 20.8128 13.4187 21.1237C13.0072 21.4347 12.5055 21.603 11.9898 21.603C11.474 21.603 10.9723 21.4347 10.5608 21.1237C10.1494 20.8128 9.85055 20.3761 9.70977 19.8799C9.51109 19.1938 9.05415 18.6114 8.43501 18.2552C7.81587 17.8991 7.08276 17.7968 6.38977 17.9699C5.87958 18.1155 5.33526 18.0858 4.84398 17.8854C4.35271 17.685 3.94289 17.3255 3.68014 16.8646C3.4174 16.4036 3.31693 15.8678 3.39482 15.343C3.47272 14.8182 3.72447 14.3347 4.10977 13.9699C4.60533 13.4555 4.88221 12.7691 4.88221 12.0549C4.88221 11.3407 4.60533 10.6542 4.10977 10.1399C3.72447 9.7751 3.47272 9.2916 3.39482 8.76677C3.31693 8.24194 3.4174 7.70615 3.68014 7.24519C3.94289 6.78424 4.35271 6.42478 4.84398 6.22438C5.33526 6.02398 5.87958 5.99422 6.38977 6.13988C7.0841 6.31259 7.81836 6.20893 8.43773 5.85074C9.0571 5.49255 9.51317 4.90782 9.70977 4.21988C9.84431 3.71529 10.1417 3.26926 10.5558 2.9511C10.97 2.63293 11.4775 2.46045 11.9998 2.46045C12.522 2.46045 13.0296 2.63293 13.4437 2.9511C13.8578 3.26926 14.1552 3.71529 14.2898 4.21988Z" stroke="white" stroke-width="1.5" stroke-miterlimit="10" stroke-linecap="round"/>
</svg>
