<svg width="24" height="24" viewBox="0 0 24 24" fill="none" xmlns="http://www.w3.org/2000/svg">
<path d="M18.75 6.58984H5.25C3.59315 6.58984 2.25 7.93299 2.25 9.58984V14.4198C2.25 16.0767 3.59315 17.4198 5.25 17.4198H18.75C20.4069 17.4198 21.75 16.0767 21.75 14.4198V9.58984C21.75 7.93299 20.4069 6.58984 18.75 6.58984Z" stroke="white" stroke-width="1.5" stroke-miterlimit="10" stroke-linecap="round"/>
<path d="M8.5 2.25H15.5C16.2956 2.25 17.0587 2.56605 17.6213 3.12866C18.1839 3.69127 18.5 4.45435 18.5 5.25V6.57999H5.5V5.25C5.5 4.45435 5.81611 3.69127 6.37872 3.12866C6.94133 2.56605 7.70435 2.25 8.5 2.25V2.25Z" stroke="white" stroke-width="1.5" stroke-miterlimit="10" stroke-linecap="round"/>
<path d="M16.05 21.75H8.54997C7.75432 21.75 6.99124 21.4339 6.42863 20.8713C5.86603 20.3087 5.54997 19.5456 5.54997 18.75V17.38H18.55V19.21C18.5553 19.5416 18.4945 19.8711 18.3713 20.179C18.248 20.487 18.0647 20.7673 17.832 21.0037C17.5993 21.2401 17.322 21.4278 17.016 21.5559C16.7101 21.6841 16.3817 21.75 16.05 21.75V21.75Z" stroke="white" stroke-width="1.5" stroke-miterlimit="10" stroke-linecap="round"/>
</svg>
