<svg width="24" height="24" viewBox="0 0 24 24" fill="none" xmlns="http://www.w3.org/2000/svg">
<path d="M11.31 18.98L7.90002 20.77C6.43002 21.54 5.45999 20.84 5.73999 19.2L6.39001 15.4C6.41854 15.162 6.39482 14.9206 6.32055 14.6926C6.24629 14.4646 6.12329 14.2556 5.96002 14.08L3.20001 11.39C2.01001 10.23 2.38997 9.09001 4.02997 8.85001L7.84002 8.30003C8.07592 8.25173 8.29877 8.1536 8.49365 8.01218C8.68853 7.87076 8.8509 7.68931 8.96997 7.48002L10.67 4.03004C11.41 2.54004 12.61 2.54004 13.34 4.03004L15.05 7.48002C15.1659 7.68985 15.3262 7.87191 15.5196 8.01353C15.713 8.15514 15.9349 8.25291 16.17 8.30003L19.99 8.85001C21.63 9.09001 21.99 10.23 20.81 11.39L18.05 14.08C17.8889 14.2571 17.7673 14.4663 17.6932 14.6938C17.619 14.9214 17.5941 15.1621 17.62 15.4L18.27 19.2C18.55 20.84 17.58 21.54 16.11 20.77L12.7 18.98C12.4816 18.8815 12.2446 18.8305 12.005 18.8305C11.7654 18.8305 11.5284 18.8815 11.31 18.98Z" fill="#1FBE72" stroke="#1FBE72" stroke-width="1.5" stroke-miterlimit="10"/>
</svg>
