<svg width="32" height="32" viewBox="0 0 32 32" fill="none" xmlns="http://www.w3.org/2000/svg">
<g opacity="1">
<path fill-rule="evenodd" clip-rule="evenodd" d="M4.08203 7.9987C4.08203 5.83558 5.83558 4.08203 7.9987 4.08203H23.9987C26.1618 4.08203 27.9154 5.83558 27.9154 7.9987V15.25L4.08203 15.25V7.9987ZM4.08203 16.75V23.9987C4.08203 26.1618 5.83558 27.9154 7.9987 27.9154H23.9987C26.1618 27.9154 27.9154 26.1618 27.9154 23.9987V16.75L4.08203 16.75ZM7.9987 2.58203C5.00716 2.58203 2.58203 5.00716 2.58203 7.9987V23.9987C2.58203 26.9902 5.00716 29.4154 7.9987 29.4154H23.9987C26.9902 29.4154 29.4154 26.9902 29.4154 23.9987V7.9987C29.4154 5.00716 26.9902 2.58203 23.9987 2.58203H7.9987Z" fill="white"/>
<path d="M16 3.33203V28.6654" stroke="white" stroke-width="1.5" stroke-linecap="round" stroke-linejoin="round"/>
</g>
</svg>
