<svg width="32" height="32" viewBox="0 0 32 32" fill="none" xmlns="http://www.w3.org/2000/svg">
<g opacity="1">
<path d="M24 3.3334H7.99998C5.42265 3.3334 3.33331 5.42274 3.33331 8.00007V24.0001C3.33331 26.5774 5.42265 28.6667 7.99998 28.6667H24C26.5773 28.6667 28.6666 26.5774 28.6666 24.0001V8.00007C28.6666 5.42274 26.5773 3.3334 24 3.3334Z" stroke="white" stroke-width="1.5" stroke-miterlimit="10" stroke-linecap="round"/>
<path d="M11.7278 21.3333C11.3017 21.3333 10.8909 21.2789 10.4953 21.1703C10.1099 21.0617 9.75483 20.8987 9.43024 20.6814C9.10565 20.4543 8.81656 20.1728 8.56297 19.837C8.31952 19.5012 8.13187 19.111 8 18.6666L9.87149 17.9407C10.0034 18.4345 10.2265 18.8098 10.541 19.0666C10.8554 19.3135 11.251 19.437 11.7278 19.437C11.9408 19.437 12.1436 19.4073 12.3364 19.3481C12.5291 19.2789 12.6965 19.1851 12.8385 19.0666C12.9805 18.9481 13.0921 18.8098 13.1732 18.6518C13.2645 18.4839 13.3102 18.2962 13.3102 18.0888C13.3102 17.6543 13.1428 17.3135 12.808 17.0666C12.4835 16.8197 12.0321 16.6962 11.4539 16.6962H10.5562V14.9333H11.3778C11.5807 14.9333 11.7785 14.9086 11.9712 14.8592C12.1639 14.8098 12.3313 14.7357 12.4733 14.637C12.6255 14.5283 12.7421 14.395 12.8233 14.237C12.9146 14.0691 12.9602 13.8765 12.9602 13.6592C12.9602 13.3234 12.8385 13.0518 12.595 12.8444C12.3516 12.6271 12.0219 12.5184 11.606 12.5184C11.1597 12.5184 10.8148 12.637 10.5714 12.874C10.3381 13.1012 10.1758 13.358 10.0845 13.6444L8.25866 12.9184C8.34995 12.6715 8.48689 12.4197 8.66948 12.1629C8.85206 11.8962 9.08029 11.6592 9.35417 11.4518C9.63819 11.2345 9.96785 11.0617 10.3432 10.9333C10.7185 10.795 11.1496 10.7259 11.6365 10.7259C12.1335 10.7259 12.5849 10.795 12.9906 10.9333C13.4065 11.0715 13.7615 11.2641 14.0557 11.511C14.3499 11.7481 14.5781 12.0345 14.7404 12.3703C14.9027 12.6962 14.9838 13.0518 14.9838 13.437C14.9838 13.7333 14.9433 13.9999 14.8621 14.237C14.7911 14.474 14.6948 14.6863 14.573 14.874C14.4513 15.0617 14.3093 15.2246 14.147 15.3629C13.9948 15.4913 13.8376 15.595 13.6753 15.674V15.7925C14.1622 15.9802 14.5629 16.2814 14.8773 16.6962C15.2019 17.111 15.3642 17.6345 15.3642 18.2666C15.3642 18.711 15.278 19.1209 15.1056 19.4962C14.9331 19.8617 14.6846 20.1826 14.36 20.4592C14.0456 20.7357 13.6652 20.9481 13.2189 21.0962C12.7726 21.2543 12.2755 21.3333 11.7278 21.3333ZM20.8656 14.5777C21.2612 14.5777 21.6467 14.6617 22.022 14.8296C22.3973 14.9876 22.7321 15.2098 23.0262 15.4962C23.3203 15.7826 23.5537 16.1283 23.7261 16.5333C23.9087 16.9382 24 17.3826 24 17.8666C24 18.3703 23.8985 18.8345 23.6957 19.2592C23.4929 19.6839 23.219 20.0493 22.8741 20.3555C22.5393 20.6617 22.1488 20.9036 21.7025 21.0814C21.2663 21.2493 20.8048 21.3333 20.3179 21.3333C19.7499 21.3333 19.2376 21.2394 18.7811 21.0518C18.3247 20.8543 17.9291 20.5975 17.5943 20.2814C17.2698 19.9555 17.0162 19.5802 16.8336 19.1555C16.6611 18.7209 16.5749 18.2666 16.5749 17.7925C16.5749 17.111 16.7118 16.4888 16.9857 15.9259C17.2698 15.353 17.6248 14.7703 18.0508 14.1777L20.5765 10.6666L22.1133 11.7036L19.9831 14.637L20.0592 14.7259C20.2925 14.6271 20.5613 14.5777 20.8656 14.5777ZM20.2875 19.5407C20.5106 19.5407 20.7287 19.5012 20.9417 19.4222C21.1547 19.3431 21.3424 19.2296 21.5047 19.0814C21.667 18.9333 21.7938 18.7604 21.8851 18.5629C21.9865 18.3555 22.0372 18.1283 22.0372 17.8814C22.0372 17.6345 21.9865 17.4073 21.8851 17.1999C21.7938 16.9925 21.667 16.8147 21.5047 16.6666C21.3424 16.5184 21.1547 16.4049 20.9417 16.3259C20.7287 16.2468 20.5106 16.2073 20.2875 16.2073C20.0542 16.2073 19.831 16.2468 19.618 16.3259C19.4151 16.4049 19.2275 16.5184 19.055 16.6666C18.8927 16.8147 18.7609 16.9925 18.6594 17.1999C18.5681 17.4073 18.5225 17.6345 18.5225 17.8814C18.5225 18.1283 18.5681 18.3555 18.6594 18.5629C18.7609 18.7604 18.8927 18.9333 19.055 19.0814C19.2275 19.2296 19.4151 19.3431 19.618 19.4222C19.831 19.5012 20.0542 19.5407 20.2875 19.5407Z" fill="white"/>
</g>
</svg>
