<svg width="32" height="32" viewBox="0 0 32 32" fill="none" xmlns="http://www.w3.org/2000/svg">
<path opacity="1" d="M23.6667 3H7.66667C5.08934 3 3 5.08934 3 7.66667V23.6667C3 26.244 5.08934 28.3333 7.66667 28.3333H23.6667C26.244 28.3333 28.3333 26.244 28.3333 23.6667V7.66667C28.3333 5.08934 26.244 3 23.6667 3Z" stroke="white" stroke-width="1.5" stroke-miterlimit="10" stroke-linecap="round"/>
<path opacity="1" d="M11.135 21V13.05L9.32 13.815L8.6 12.15L11.615 10.74H13.1V21H11.135ZM19.2607 14.4C19.6507 14.4 20.0307 14.485 20.4007 14.655C20.7707 14.815 21.1007 15.04 21.3907 15.33C21.6807 15.62 21.9107 15.97 22.0807 16.38C22.2607 16.79 22.3507 17.24 22.3507 17.73C22.3507 18.24 22.2507 18.71 22.0507 19.14C21.8507 19.57 21.5807 19.94 21.2407 20.25C20.9107 20.56 20.5257 20.805 20.0857 20.985C19.6557 21.155 19.2007 21.24 18.7207 21.24C18.1607 21.24 17.6557 21.145 17.2057 20.955C16.7557 20.755 16.3657 20.495 16.0357 20.175C15.7157 19.845 15.4657 19.465 15.2857 19.035C15.1157 18.595 15.0307 18.135 15.0307 17.655C15.0307 16.965 15.1657 16.335 15.4357 15.765C15.7157 15.185 16.0657 14.595 16.4857 13.995L18.9757 10.44L20.4907 11.49L18.3907 14.46L18.4657 14.55C18.6957 14.45 18.9607 14.4 19.2607 14.4ZM18.6907 19.425C18.9107 19.425 19.1257 19.385 19.3357 19.305C19.5457 19.225 19.7307 19.11 19.8907 18.96C20.0507 18.81 20.1757 18.635 20.2657 18.435C20.3657 18.225 20.4157 17.995 20.4157 17.745C20.4157 17.495 20.3657 17.265 20.2657 17.055C20.1757 16.845 20.0507 16.665 19.8907 16.515C19.7307 16.365 19.5457 16.25 19.3357 16.17C19.1257 16.09 18.9107 16.05 18.6907 16.05C18.4607 16.05 18.2407 16.09 18.0307 16.17C17.8307 16.25 17.6457 16.365 17.4757 16.515C17.3157 16.665 17.1857 16.845 17.0857 17.055C16.9957 17.265 16.9507 17.495 16.9507 17.745C16.9507 17.995 16.9957 18.225 17.0857 18.435C17.1857 18.635 17.3157 18.81 17.4757 18.96C17.6457 19.11 17.8307 19.225 18.0307 19.305C18.2407 19.385 18.4607 19.425 18.6907 19.425Z" fill="white"/>
</svg>
