<svg width="32" height="32" viewBox="0 0 32 32" fill="none" xmlns="http://www.w3.org/2000/svg">
<g opacity="1">
<path d="M7.99935 28.668L23.9993 28.668C26.5767 28.668 28.666 26.5786 28.666 24.0013L28.666 8.0013C28.666 5.42397 26.5767 3.33463 23.9993 3.33463L7.99934 3.33463C5.42202 3.33463 3.33268 5.42397 3.33268 8.0013L3.33268 24.0013C3.33268 26.5786 5.42202 28.668 7.99935 28.668Z" stroke="white" stroke-width="1.5" stroke-linecap="round" stroke-linejoin="round"/>
<path d="M12 28.332L12 3.49902" stroke="white" stroke-width="1.5" stroke-linecap="round" stroke-linejoin="round"/>
<path d="M4 12C4 12 27.6782 12 28 12" stroke="white" stroke-width="1.5" stroke-linecap="round" stroke-linejoin="round"/>
<path d="M4 20C4 20 27.6782 20 28 20" stroke="white" stroke-width="1.5" stroke-linecap="round" stroke-linejoin="round"/>
<path d="M20 28.668L20 3.33463" stroke="white" stroke-width="1.5" stroke-linecap="round" stroke-linejoin="round"/>
</g>
</svg>
