<svg width="32" height="32" viewBox="0 0 32 32" fill="none" xmlns="http://www.w3.org/2000/svg">
<path opacity="1" d="M23.6667 3H7.66667C5.08934 3 3 5.08934 3 7.66667V23.6667C3 26.244 5.08934 28.3333 7.66667 28.3333H23.6667C26.244 28.3333 28.3333 26.244 28.3333 23.6667V7.66667C28.3333 5.08934 26.244 3 23.6667 3Z" stroke="white" stroke-width="1.5" stroke-miterlimit="10" stroke-linecap="round"/>
<path opacity="1" d="M8.69 21V19.215C9.28 18.635 9.825 18.095 10.325 17.595C10.535 17.385 10.75 17.17 10.97 16.95C11.19 16.73 11.395 16.525 11.585 16.335C11.775 16.145 11.945 15.975 12.095 15.825C12.245 15.665 12.36 15.54 12.44 15.45C12.6 15.26 12.74 15.09 12.86 14.94C12.99 14.79 13.09 14.645 13.16 14.505C13.24 14.355 13.3 14.21 13.34 14.07C13.38 13.92 13.4 13.76 13.4 13.59C13.4 13.26 13.27 12.975 13.01 12.735C12.75 12.485 12.395 12.36 11.945 12.36C11.495 12.36 11.145 12.49 10.895 12.75C10.645 13 10.475 13.285 10.385 13.605L8.6 12.87C8.68 12.6 8.81 12.325 8.99 12.045C9.17 11.755 9.4 11.5 9.68 11.28C9.96 11.05 10.29 10.865 10.67 10.725C11.06 10.575 11.495 10.5 11.975 10.5C12.495 10.5 12.965 10.58 13.385 10.74C13.805 10.89 14.16 11.1 14.45 11.37C14.74 11.64 14.965 11.96 15.125 12.33C15.285 12.69 15.365 13.08 15.365 13.5C15.365 14.14 15.205 14.73 14.885 15.27C14.575 15.8 14.195 16.295 13.745 16.755L12.455 18.045C12.115 18.385 11.73 18.765 11.3 19.185L11.36 19.275H15.515V21H8.69ZM20.4188 21.24C20.0288 21.24 19.6388 21.185 19.2488 21.075C18.8688 20.965 18.5138 20.795 18.1838 20.565C17.8538 20.335 17.5638 20.05 17.3138 19.71C17.0738 19.36 16.8938 18.945 16.7738 18.465L18.5588 17.775C18.6688 18.275 18.8788 18.675 19.1888 18.975C19.5088 19.275 19.9138 19.425 20.4038 19.425C20.6438 19.425 20.8638 19.385 21.0638 19.305C21.2738 19.215 21.4538 19.095 21.6038 18.945C21.7638 18.795 21.8838 18.62 21.9638 18.42C22.0538 18.21 22.0988 17.98 22.0988 17.73C22.0988 17.49 22.0538 17.27 21.9638 17.07C21.8838 16.86 21.7688 16.68 21.6188 16.53C21.4688 16.37 21.2888 16.25 21.0788 16.17C20.8788 16.08 20.6538 16.035 20.4038 16.035C20.0938 16.035 19.8188 16.105 19.5788 16.245C19.3388 16.375 19.1338 16.54 18.9638 16.74L17.0588 15.87L17.6588 10.74H23.4338V12.465H19.2938L18.9038 14.865L19.0238 14.895C19.2238 14.725 19.4688 14.58 19.7588 14.46C20.0488 14.34 20.3988 14.28 20.8088 14.28C21.2388 14.28 21.6488 14.365 22.0388 14.535C22.4288 14.695 22.7738 14.925 23.0738 15.225C23.3738 15.525 23.6138 15.89 23.7938 16.32C23.9738 16.74 24.0638 17.21 24.0638 17.73C24.0638 18.24 23.9738 18.71 23.7938 19.14C23.6138 19.57 23.3588 19.94 23.0288 20.25C22.7088 20.56 22.3238 20.805 21.8738 20.985C21.4338 21.155 20.9488 21.24 20.4188 21.24Z" fill="white"/>
</svg>
